<svg xmlns="http://www.w3.org/2000/svg" width="191" height="56" viewBox="0 0 191 56" fill="none">
<path d="M49 23.3334C49 39.6667 28 53.6667 28 53.6667C28 53.6667 7 39.6667 7 23.3334C7 17.7639 9.21249 12.4224 13.1508 8.48418C17.089 4.54591 22.4305 2.33342 28 2.33342C33.5695 2.33342 38.911 4.54591 42.8492 8.48418C46.7875 12.4224 49 17.7639 49 23.3334Z" stroke="#FFD666" stroke-width="4" stroke-linecap="round" stroke-linejoin="round"/>
<path d="M28 30.3334C31.866 30.3334 35 27.1994 35 23.3334C35 19.4674 31.866 16.3334 28 16.3334C24.134 16.3334 21 19.4674 21 23.3334C21 27.1994 24.134 30.3334 28 30.3334Z" stroke="#FFD666" stroke-width="4" stroke-linecap="round" stroke-linejoin="round"/>
<path d="M75.05 34.05C74.3167 34.05 73.7 33.8167 73.2 33.35C72.7333 32.85 72.5 32.2333 72.5 31.5V7.5C72.5 6.73333 72.7333 6.11667 73.2 5.65C73.7 5.18333 74.3167 4.95 75.05 4.95C75.8167 4.95 76.4333 5.18333 76.9 5.65C77.3667 6.11667 77.6 6.73333 77.6 7.5V31.5C77.6 32.2333 77.3667 32.85 76.9 33.35C76.4333 33.8167 75.8167 34.05 75.05 34.05ZM95.6 44.05C94.8667 44.05 94.25 43.8167 93.75 43.35C93.2833 42.85 93.05 42.2333 93.05 41.5V29.2C93.05 27.3 92.7 25.75 92 24.55C91.3 23.35 90.35 22.4667 89.15 21.9C87.9833 21.3 86.6333 21 85.1 21C83.7 21 82.4333 21.2833 81.3 21.85C80.1667 22.4167 79.2667 23.1833 78.6 24.15C77.9333 25.0833 77.6 26.1667 77.6 27.4H74.45C74.45 25.3 74.95 23.4333 75.95 21.8C76.9833 20.1333 78.3833 18.8167 80.15 17.85C81.9167 16.8833 83.9 16.4 86.1 16.4C88.4 16.4 90.45 16.9 92.25 17.9C94.0833 18.8667 95.5167 20.3 96.55 22.2C97.6167 24.1 98.15 26.4333 98.15 29.2V41.5C98.15 42.2333 97.9 42.85 97.4 43.35C96.9333 43.8167 96.3333 44.05 95.6 44.05ZM75.05 44.05C74.3167 44.05 73.7 43.8167 73.2 43.35C72.7333 42.85 72.5 42.2333 72.5 41.5V19.2C72.5 18.4333 72.7333 17.8167 73.2 17.35C73.7 16.8833 74.3167 16.65 75.05 16.65C75.8167 16.65 76.4333 16.8833 76.9 17.35C77.3667 17.8167 77.6 18.4333 77.6 19.2V41.5C77.6 42.2333 77.3667 42.85 76.9 43.35C76.4333 43.8167 75.8167 44.05 75.05 44.05ZM121.981 44.2C119.214 44.2 116.748 43.6167 114.581 42.45C112.448 41.25 110.764 39.6167 109.531 37.55C108.331 35.45 107.731 33.05 107.731 30.35C107.731 27.6167 108.298 25.2167 109.431 23.15C110.598 21.05 112.198 19.4167 114.231 18.25C116.264 17.05 118.598 16.45 121.231 16.45C123.831 16.45 126.064 17.0333 127.931 18.2C129.798 19.3333 131.214 20.9167 132.181 22.95C133.181 24.95 133.681 27.2667 133.681 29.9C133.681 30.5333 133.464 31.0667 133.031 31.5C132.598 31.9 132.048 32.1 131.381 32.1H111.231V28.1H131.231L129.181 29.5C129.148 27.8333 128.814 26.35 128.181 25.05C127.548 23.7167 126.648 22.6667 125.481 21.9C124.314 21.1333 122.898 20.75 121.231 20.75C119.331 20.75 117.698 21.1667 116.331 22C114.998 22.8333 113.981 23.9833 113.281 25.45C112.581 26.8833 112.231 28.5167 112.231 30.35C112.231 32.1833 112.648 33.8167 113.481 35.25C114.314 36.6833 115.464 37.8167 116.931 38.65C118.398 39.4833 120.081 39.9 121.981 39.9C123.014 39.9 124.064 39.7167 125.131 39.35C126.231 38.95 127.114 38.5 127.781 38C128.281 37.6333 128.814 37.45 129.381 37.45C129.981 37.4167 130.498 37.5833 130.931 37.95C131.498 38.45 131.798 39 131.831 39.6C131.864 40.2 131.598 40.7167 131.031 41.15C129.898 42.05 128.481 42.7833 126.781 43.35C125.114 43.9167 123.514 44.2 121.981 44.2ZM149.186 44C147.719 44 146.419 43.6 145.286 42.8C144.152 42 143.269 40.9167 142.636 39.55C142.002 38.15 141.686 36.55 141.686 34.75V7.45C141.686 6.71667 141.919 6.11667 142.386 5.65C142.852 5.18333 143.452 4.95 144.186 4.95C144.919 4.95 145.519 5.18333 145.986 5.65C146.452 6.11667 146.686 6.71667 146.686 7.45V34.75C146.686 35.9833 146.919 37 147.386 37.8C147.852 38.6 148.452 39 149.186 39H150.436C151.102 39 151.636 39.2333 152.036 39.7C152.469 40.1667 152.686 40.7667 152.686 41.5C152.686 42.2333 152.369 42.8333 151.736 43.3C151.102 43.7667 150.286 44 149.286 44H149.186ZM162.726 55.7C161.992 55.7 161.376 55.45 160.876 54.95C160.409 54.4833 160.176 53.8833 160.176 53.15V30.35C160.209 27.7167 160.826 25.35 162.026 23.25C163.226 21.15 164.859 19.5 166.926 18.3C168.992 17.0667 171.326 16.45 173.926 16.45C176.559 16.45 178.909 17.0667 180.976 18.3C183.042 19.5 184.676 21.15 185.876 23.25C187.109 25.35 187.726 27.7167 187.726 30.35C187.726 32.9833 187.159 35.35 186.026 37.45C184.926 39.5167 183.409 41.1667 181.476 42.4C179.542 43.6 177.359 44.2 174.926 44.2C172.959 44.2 171.142 43.8 169.476 43C167.842 42.1667 166.442 41.05 165.276 39.65V53.15C165.276 53.8833 165.042 54.4833 164.576 54.95C164.109 55.45 163.492 55.7 162.726 55.7ZM173.926 39.7C175.626 39.7 177.142 39.3 178.476 38.5C179.809 37.6667 180.859 36.55 181.626 35.15C182.426 33.7167 182.826 32.1167 182.826 30.35C182.826 28.55 182.426 26.95 181.626 25.55C180.859 24.1167 179.809 23 178.476 22.2C177.142 21.3667 175.626 20.95 173.926 20.95C172.259 20.95 170.742 21.3667 169.376 22.2C168.042 23 166.992 24.1167 166.226 25.55C165.459 26.95 165.076 28.55 165.076 30.35C165.076 32.1167 165.459 33.7167 166.226 35.15C166.992 36.55 168.042 37.6667 169.376 38.5C170.742 39.3 172.259 39.7 173.926 39.7Z" fill="white"/>
</svg>